<svg width="109" height="109" viewBox="0 0 109 109" fill="none" xmlns="http://www.w3.org/2000/svg">
<path d="M95 0H14C6.26801 0 0 6.26801 0 14V95C0 102.732 6.26801 109 14 109H95C102.732 109 109 102.732 109 95V14C109 6.26801 102.732 0 95 0Z" fill="#FF9500"/>
<path d="M18.7891 66.6406C20.8516 66.6406 22.4453 65.0234 22.4453 63.0781C22.4453 61.1328 20.8516 59.5156 18.7891 59.5156C16.7266 59.5156 15.1328 61.1328 15.1328 63.0781C15.1328 65.0234 16.7266 66.6406 18.7891 66.6406ZM15.3672 95H22.2109V69.875H15.3672V95ZM27.6747 95H34.5184V80.5625C34.5184 77.2812 36.4637 75.0312 39.5341 75.0312C42.6044 75.0312 44.1512 76.9062 44.1512 80.1875V95H50.995V78.7812C50.995 72.8984 47.8544 69.3594 42.3231 69.3594C38.5262 69.3594 35.9481 71.1172 34.6591 74H34.5184V69.875H27.6747V95ZM67.6853 95.5156C74.3884 95.5156 78.7244 91.3438 79.0525 85.8594V85.7188H72.6775L72.6541 85.9297C72.1853 88.4609 70.4744 90.1484 67.7322 90.1484C64.3572 90.1484 62.2478 87.3594 62.2478 82.4375V82.4141C62.2478 77.6094 64.3572 74.7266 67.7088 74.7266C70.5447 74.7266 72.2088 76.5547 72.6306 78.9453L72.6775 79.1562H79.0291V78.9922C78.7713 73.5547 74.4353 69.3594 67.615 69.3594C60.0916 69.3594 55.2869 74.3516 55.2869 82.3906V82.4141C55.2869 90.5234 60.0213 95.5156 67.6853 95.5156Z" fill="white"/>
<path d="M22.7031 49.3984C26.0078 49.3984 28.6797 47.8281 30.1094 45.25H30.25V49H37.0938V31.7734C37.0938 26.7109 32.8984 23.3594 26.4062 23.3594C19.7734 23.3594 15.7891 26.6875 15.4141 31.3281L15.3906 31.6094H21.6484L21.6953 31.3984C22.0234 29.7812 23.5703 28.5859 26.125 28.5859C28.7969 28.5859 30.25 29.9688 30.25 32.1953V33.7422L24.0391 34.1172C17.8047 34.5156 14.2656 37.1875 14.2656 41.7578V41.8047C14.2656 46.2344 17.6641 49.3984 22.7031 49.3984ZM21.0391 41.4531V41.4062C21.0391 39.625 22.4219 38.5 25.0703 38.3359L30.25 38.0078V39.8125C30.25 42.4375 28 44.4062 24.9297 44.4062C22.5625 44.4062 21.0391 43.3047 21.0391 41.4531ZM48.8856 49H56.5966L65.2216 23.875H58.0731L52.8934 42.9531H52.7528L47.5028 23.875H40.1903L48.8856 49ZM68.4822 57.2031H75.3259V44.7109H75.4666C76.8259 47.6875 79.6619 49.5156 83.2478 49.5156C89.5291 49.5156 93.4197 44.5938 93.4197 36.4375V36.4141C93.4197 28.2344 89.5291 23.3594 83.1541 23.3594C79.5916 23.3594 76.8494 25.2109 75.49 28.2578H75.3259V23.875H68.4822V57.2031ZM80.9041 43.8438C77.5759 43.8438 75.3025 40.9844 75.3025 36.4609V36.4375C75.3025 31.8906 77.5759 29.0312 80.9041 29.0312C84.3025 29.0312 86.4588 31.8203 86.4588 36.4141V36.4375C86.4588 41.0078 84.3025 43.8438 80.9041 43.8438Z" fill="white"/>
</svg>
